#N canvas 0 4 1920 1016 12;
#X obj 77 45 bng 19 250 50 0 empty empty empty 0 -10 0 12 #fcfcfc #000000 #000000;
#X obj 76 90 f 0;
#X obj 196 48 r state;
#X floatatom 197 85 5 0 0 0 - - - 0;
#X obj 70 155 sel 0 1 2, f 63;
#X obj 71 218 bng 19 250 50 0 empty empty empty 0 -10 0 12 #fcfcfc #000000 #000000;
#X obj 217 223 bng 19 250 50 0 empty empty empty 0 -10 0 12 #fcfcfc #000000 #000000;
#X obj 364 221 bng 19 250 50 0 empty empty empty 0 -10 0 12 #fcfcfc #000000 #000000;
#X obj 64 348 bng 19 250 50 0 empty empty empty 0 -10 0 12 #fcfcfc #000000 #000000;
#X obj 99 349 bng 19 250 50 0 empty empty empty 0 -10 0 12 #fcfcfc #000000 #000000;
#X obj 212 350 bng 19 250 50 0 empty empty empty 0 -10 0 12 #fcfcfc #000000 #000000;
#X obj 249 350 bng 19 250 50 0 empty empty empty 0 -10 0 12 #fcfcfc #000000 #000000;
#X obj 362 355 bng 19 250 50 0 empty empty empty 0 -10 0 12 #fcfcfc #000000 #000000;
#X obj 481 356 bng 19 250 50 0 empty empty empty 0 -10 0 12 #fcfcfc #000000 #000000;
#X obj 214 532 s state;
#X obj 58 471 f 1;
#X obj 102 472 f 2;
#X obj 206 471 f 0;
#X obj 250 480 f 2;
#X obj 357 486 f 0;
#X obj 427 351 bng 19 250 50 0 empty empty empty 0 -10 0 12 #fcfcfc #000000 #000000;
#X obj 435 483 f 1;
#X obj 489 488 f 2;
#X obj 362 321 moses 40;
#X obj 438 323 moses 80;
#X obj 364 269 random 100;
#X obj 215 270 random 100;
#X obj 69 262 random 100;
#X obj 68 312 moses 40;
#X obj 215 315 moses 20;
#X obj 108 11 inlet;
#X obj 405 615 outlet;
#X msg 6 374 60 127;
#X msg 114 376 62 127;
#X msg 158 409 64 127;
#X msg 275 412 65 127;
#X msg 372 409 67 127;
#X msg 436 413 69 127;
#X msg 516 414 71 127;
#X connect 0 0 1 0;
#X connect 1 0 4 0;
#X connect 2 0 3 0;
#X connect 3 0 1 1;
#X connect 4 0 5 0;
#X connect 4 1 6 0;
#X connect 4 2 7 0;
#X connect 5 0 27 0;
#X connect 6 0 26 0;
#X connect 7 0 25 0;
#X connect 8 0 15 0;
#X connect 8 0 32 0;
#X connect 9 0 16 0;
#X connect 9 0 33 0;
#X connect 10 0 17 0;
#X connect 10 0 34 0;
#X connect 11 0 18 0;
#X connect 11 0 35 0;
#X connect 12 0 19 0;
#X connect 12 0 36 0;
#X connect 13 0 22 0;
#X connect 13 0 38 0;
#X connect 15 0 14 0;
#X connect 16 0 14 0;
#X connect 17 0 14 0;
#X connect 18 0 14 0;
#X connect 19 0 14 0;
#X connect 20 0 21 0;
#X connect 20 0 37 0;
#X connect 21 0 14 0;
#X connect 22 0 14 0;
#X connect 23 0 12 0;
#X connect 23 1 24 0;
#X connect 24 0 20 0;
#X connect 24 1 13 0;
#X connect 25 0 23 0;
#X connect 26 0 29 0;
#X connect 27 0 28 0;
#X connect 28 0 8 0;
#X connect 28 1 9 0;
#X connect 29 0 10 0;
#X connect 29 1 11 0;
#X connect 30 0 0 0;
#X connect 32 0 31 0;
#X connect 33 0 31 0;
#X connect 34 0 31 0;
#X connect 35 0 31 0;
#X connect 36 0 31 0;
#X connect 37 0 31 0;
#X connect 38 0 31 0;
