#N canvas 951 0 956 1003 12;
#N canvas 483 260 1168 592 Modal 0;
#X obj 822 257 inlet;
#X obj 905 257 inlet;
#X obj 378 15 inlet;
#N canvas 4 4 1920 1016 resonator 0;
#X obj 66 552 cyclone/reson~;
#X obj 689 553 cyclone/reson~;
#X obj 566 556 cyclone/reson~;
#X obj 179 553 cyclone/reson~;
#X obj 308 555 cyclone/reson~;
#X obj 440 555 cyclone/reson~;
#X obj 831 553 cyclone/reson~;
#X obj 208 721 outlet~;
#X obj 82 125 inlet~;
#X obj 749 319 t b f;
#X obj 808 319 t b f;
#X obj 983 323 t b f;
#X obj 1040 322 t b f;
#X obj 1103 319 t b f;
#X obj 926 322 t b f;
#X obj 866 321 t b f;
#X obj 734 357 *;
#X obj 797 357 *;
#X obj 858 358 *;
#X obj 914 353 *;
#X obj 974 359 *;
#X obj 1035 360 *;
#X obj 1088 360 *;
#X obj 354 -45 inlet;
#X obj 673 213 * 2;
#X obj 711 211 * 3;
#X obj 748 212 * 4;
#X obj 779 209 * 5;
#X obj 824 208 * 6;
#X obj 870 207 * 7;
#X obj 1386 -46 inlet;
#X obj 788 -44 inlet;
#X obj 669 171 +;
#X obj 709 171 +;
#X obj 745 175 +;
#X obj 780 171 +;
#X obj 824 173 +;
#X obj 875 174 +;
#X obj 662 8 * 1.1;
#X obj 720 11 * 1.2;
#X obj 777 13 * 1.3;
#X obj 829 15 * 1.4;
#X obj 886 16 * 1.5;
#X obj 936 15 * 1.6;
#X connect 0 0 7 0;
#X connect 1 0 7 0;
#X connect 2 0 7 0;
#X connect 3 0 7 0;
#X connect 4 0 7 0;
#X connect 5 0 7 0;
#X connect 6 0 7 0;
#X connect 8 0 0 0;
#X connect 8 0 3 0;
#X connect 8 0 4 0;
#X connect 8 0 5 0;
#X connect 8 0 2 0;
#X connect 8 0 1 0;
#X connect 8 0 6 0;
#X connect 9 0 16 0;
#X connect 9 1 16 1;
#X connect 10 0 17 0;
#X connect 10 1 17 1;
#X connect 11 0 20 0;
#X connect 11 1 20 1;
#X connect 12 0 21 0;
#X connect 12 1 21 1;
#X connect 13 0 22 0;
#X connect 13 1 22 1;
#X connect 14 0 19 0;
#X connect 14 1 19 1;
#X connect 15 0 18 0;
#X connect 15 1 18 1;
#X connect 16 0 0 1;
#X connect 16 0 0 3;
#X connect 17 0 3 1;
#X connect 17 0 3 3;
#X connect 18 0 4 1;
#X connect 18 0 4 3;
#X connect 19 0 5 1;
#X connect 19 0 5 3;
#X connect 20 0 2 1;
#X connect 20 0 2 3;
#X connect 21 0 1 1;
#X connect 21 0 1 3;
#X connect 22 0 6 1;
#X connect 22 0 6 3;
#X connect 23 0 0 2;
#X connect 23 0 16 0;
#X connect 23 0 32 0;
#X connect 23 0 33 0;
#X connect 23 0 34 0;
#X connect 23 0 35 0;
#X connect 23 0 36 0;
#X connect 23 0 37 0;
#X connect 24 0 17 0;
#X connect 24 0 3 2;
#X connect 25 0 18 0;
#X connect 25 0 4 2;
#X connect 26 0 19 0;
#X connect 26 0 5 2;
#X connect 27 0 20 0;
#X connect 27 0 2 2;
#X connect 28 0 21 0;
#X connect 28 0 1 2;
#X connect 29 0 22 0;
#X connect 29 0 6 2;
#X connect 30 0 9 0;
#X connect 30 0 10 0;
#X connect 30 0 15 0;
#X connect 30 0 14 0;
#X connect 30 0 11 0;
#X connect 30 0 12 0;
#X connect 30 0 13 0;
#X connect 31 0 38 0;
#X connect 31 0 39 0;
#X connect 31 0 40 0;
#X connect 31 0 41 0;
#X connect 31 0 42 0;
#X connect 31 0 43 0;
#X connect 32 0 24 0;
#X connect 33 0 25 0;
#X connect 34 0 26 0;
#X connect 35 0 27 0;
#X connect 36 0 28 0;
#X connect 37 0 29 0;
#X connect 38 0 32 1;
#X connect 39 0 33 1;
#X connect 40 0 34 1;
#X connect 41 0 35 1;
#X connect 42 0 36 1;
#X connect 43 0 37 1;
#X restore 236 684 pd resonator;
#X obj 242 505 cyclone/click~;
#X msg 269 470 set 256;
#X floatatom 135 487 5 0 0 0 - - - 0;
#X obj 136 548 cyclone/rand~;
#X obj 608 298 cyclone/curve~, f 16;
#X obj 465 392 *~;
#X obj 441 263 cyclone/svf~;
#X obj 412 324 cyclone/selector~ 4 1;
#X floatatom 479 230 5 0 0 0 - - - 0;
#X floatatom 537 232 5 0 0 0 - - - 0;
#X obj 255 783 outlet~;
#X obj 555 0 inlet;
#X obj 324 112 cyclone/rand~;
#X floatatom 700 117 5 0 0 0 - - - 0;
#X obj 556 51 unpack 0 0 0 0;
#X listbox 166 53 20 0 0 0 - - - 0;
#X obj 984 259 inlet;
#X connect 0 0 3 1;
#X connect 1 0 3 3;
#X connect 2 0 8 0;
#X connect 2 0 19 0;
#X connect 3 0 14 0;
#X connect 5 0 4 0;
#X connect 6 0 7 0;
#X connect 8 0 9 1;
#X connect 9 0 3 0;
#X connect 10 0 11 1;
#X connect 10 1 11 2;
#X connect 10 2 11 3;
#X connect 10 3 11 4;
#X connect 11 0 9 0;
#X connect 12 0 10 1;
#X connect 13 0 10 2;
#X connect 15 0 18 0;
#X connect 16 0 10 0;
#X connect 17 0 11 0;
#X connect 18 0 16 0;
#X connect 18 1 12 0;
#X connect 18 2 13 0;
#X connect 18 3 17 0;
#X connect 20 0 3 2;
#X restore 147 580 pd Modal Voice;
#X f 27;
#X obj 267 70 inlet;
#X obj 54 525 outlet~;
#X floatatom 534 271 5 0 0 0 - - - 0;
#X floatatom 460 314 5 0 0 0 - - - 0;
#X obj 427 268 mtof;
#X floatatom 413 222 5 0 0 0 - - - 0;
#X obj 154 173 stripnote;
#X obj 473 127 / 100;
#X obj 259 248 t b f;
#X listbox 286 374 20 0 0 0 - - - 0;
#X floatatom 450 190 5 0 0 0 - - - 0;
#X obj 305 318 pack f f f f;
#X obj 71 418 pack 1 100 0 0 100 -0.5;
#X floatatom 773 187 5 0 0 0 - - - 0;
#X obj 150 143 unpack f f f f f f f f f, f 36;
#X connect 0 0 2 0;
#X connect 1 0 15 0;
#X connect 3 0 0 3;
#X connect 4 0 0 2;
#X connect 5 0 4 0;
#X connect 6 0 5 0;
#X connect 7 0 9 0;
#X connect 7 1 8 0;
#X connect 8 0 3 0;
#X connect 9 0 13 0;
#X connect 9 1 6 0;
#X connect 10 0 0 1;
#X connect 12 0 10 0;
#X connect 13 0 0 0;
#X connect 15 0 7 0;
#X connect 15 1 7 1;
#X connect 15 2 12 0;
#X connect 15 3 12 1;
#X connect 15 4 12 2;
#X connect 15 5 11 0;
#X connect 15 5 12 3;
#X connect 15 6 13 1;
#X connect 15 7 13 4;
#X connect 15 8 0 4;
#X connect 15 8 14 0;
