#N canvas 0 0 1129 1003 12;
#X msg 439 738 connect 127.0.0.1 12000;
#X floatatom 520 817 5 0 0 0 - - - 0;
#X msg 541 889 disconnect;
#X obj 435 928 netsend -u;
#X obj 272 835 print udp;
#X obj 713 311 output~;
#X obj 724 56 notein 1;
#X obj 719 155 - 1;
#X listbox 970 293 41 0 0 0 - - - 0;
#X floatatom 903 181 5 0 0 0 - - - 0;
#X floatatom 954 178 5 0 0 0 - - - 0;
#X floatatom 1007 177 5 0 0 0 - - - 0;
#X text 889 162 density;
#X text 949 159 cutoff;
#X text 1000 153 resonance;
#X obj 1076 96 vradio 19 1 0 4 empty empty empty 0 -10 0 12 #fcfcfc #000000 #000000 0;
#X obj 1060 181 + 1;
#X text 1040 64 filter type;
#X obj 721 123 poly 6 1;
#X obj 721 264 clone Modal 6;
#X floatatom 1140 174 5 0 0 0 - - - 0;
#X floatatom 1207 173 5 0 0 0 - - - 0;
#X text 1139 148 attack;
#X text 1200 154 release;
#X floatatom 1302 182 5 0 0 0 - - - 0;
#X text 1282 161 inharmonicity;
#X obj 883 240 pack 0 0 0 0 0 0 0 0 0 0, f 46;
#X obj 180 499 clone Markov 4;
#X floatatom 332 624 5 0 0 0 - - - 0;
#X floatatom 266 639 5 0 0 0 - - - 0;
#X obj 177 546 unpack f f f;
#X floatatom 172 643 5 0 0 0 - - - 0;
#X obj 142 105 cyclone/train~;
#X floatatom 173 40 5 0 0 0 - - - 0;
#X obj 190 168 bng 19 250 50 0 empty empty empty 0 -10 0 12 #fcfcfc #000000 #000000;
#X obj 41 230 random 100;
#X obj 44 273 moses 50;
#X obj 45 320 bng 19 250 50 0 empty empty empty 0 -10 0 12 #fcfcfc #000000 #000000;
#X obj 137 228 random 100;
#X obj 140 271 moses 50;
#X obj 142 328 bng 19 250 50 0 empty empty empty 0 -10 0 12 #fcfcfc #000000 #000000;
#X obj 229 232 random 100;
#X obj 232 275 moses 50;
#X obj 233 322 bng 19 250 50 0 empty empty empty 0 -10 0 12 #fcfcfc #000000 #000000;
#X obj 319 229 random 100;
#X obj 322 272 moses 50;
#X obj 323 319 bng 19 250 50 0 empty empty empty 0 -10 0 12 #fcfcfc #000000 #000000;
#X floatatom 56 356 5 0 0 0 - - - 0;
#X obj 54 468 mod 4;
#X obj 54 395 t b f;
#X obj 54 427 f;
#X obj 91 430 + 1;
#X msg 519 855 send / pamp1 \$1;
#X obj 176 814 bng 19 250 50 0 empty empty empty 0 -10 0 12 #fcfcfc #000000 #000000;
#X obj 259 778 netreceive -u 7099;
#X connect 0 0 3 0;
#X connect 1 0 52 0;
#X connect 2 0 3 0;
#X connect 6 0 18 0;
#X connect 6 1 18 1;
#X connect 7 0 26 0;
#X connect 9 0 26 3;
#X connect 10 0 26 4;
#X connect 11 0 26 5;
#X connect 15 0 16 0;
#X connect 16 0 26 6;
#X connect 18 0 7 0;
#X connect 18 1 26 1;
#X connect 18 2 26 2;
#X connect 19 0 5 0;
#X connect 20 0 26 7;
#X connect 21 0 26 8;
#X connect 24 0 26 9;
#X connect 26 0 8 0;
#X connect 26 0 19 0;
#X connect 27 0 30 0;
#X connect 30 0 31 0;
#X connect 30 1 29 0;
#X connect 30 1 18 0;
#X connect 30 2 28 0;
#X connect 30 2 18 1;
#X connect 32 1 34 0;
#X connect 33 0 32 0;
#X connect 34 0 35 0;
#X connect 34 0 38 0;
#X connect 34 0 41 0;
#X connect 34 0 44 0;
#X connect 35 0 36 0;
#X connect 36 0 37 0;
#X connect 37 0 47 0;
#X connect 38 0 39 0;
#X connect 39 0 40 0;
#X connect 40 0 47 0;
#X connect 41 0 42 0;
#X connect 42 0 43 0;
#X connect 43 0 47 0;
#X connect 44 0 45 0;
#X connect 45 0 46 0;
#X connect 46 0 47 0;
#X connect 47 0 49 0;
#X connect 48 0 51 0;
#X connect 48 0 27 0;
#X connect 49 0 50 0;
#X connect 50 0 48 0;
#X connect 51 0 50 1;
#X connect 52 0 3 0;
#X connect 54 0 4 0;
#X connect 54 0 53 0;
