#N canvas 0 0 1920 1016 12;
#X obj 605 586 - 1;
#X listbox 944 717 41 0 0 0 - - - 0;
#X floatatom 902 617 5 0 20000 0 - - - 0;
#X floatatom 953 614 5 0 20000 0 - - - 0;
#X floatatom 1006 613 5 0 1 0 - - - 0;
#X text 888 598 density;
#X text 948 595 cutoff;
#X text 999 589 resonance;
#X obj 1075 532 vradio 19 1 0 4 empty empty empty 0 -10 0 12 #fcfcfc #000000 #000000 0;
#X text 1039 500 filter type;
#X floatatom 1139 610 5 0 10000 0 - - - 0;
#X floatatom 1206 609 5 0 6000 0 - - - 0;
#X text 1138 584 attack;
#X text 1199 590 release;
#X floatatom 1301 618 5 0 2 0 - - - 0;
#X text 1281 597 inharmonicity;
#X obj 882 676 pack 0 0 0 0 0 0 0 0 0 0, f 46;
#X obj 70 486 netreceive -u -b 7099;
#X obj 67 528 oscparse;
#X obj 541 41 tgl 15 0 empty empty empty 17 7 0 10 #fcfcfc #000000 #000000 0 1;
#N canvas 1161 247 679 469 seconda_voce 0;
#X obj 37 30 inlet;
#X obj 37 130 outlet;
#X obj 37 55 t f b;
#X obj 37 103 +;
#N canvas 94 84 1053 556 markov_chain 0;
#X obj 99 226 bng 15 250 50 0 empty empty empty 17 7 0 10 #fcfcfc #000000 #000000;
#X obj 172 226 bng 15 250 50 0 empty empty empty 17 7 0 10 #fcfcfc #000000 #000000;
#X obj 233 227 bng 15 250 50 0 empty empty empty 17 7 0 10 #fcfcfc #000000 #000000;
#X obj 99 147 bng 15 250 50 0 empty empty empty 17 7 0 10 #fcfcfc #000000 #000000;
#X obj 560 224 bng 15 250 50 0 empty empty empty 17 7 0 10 #fcfcfc #000000 #000000;
#X obj 560 150 bng 15 250 50 0 empty empty empty 17 7 0 10 #fcfcfc #000000 #000000;
#X obj 560 195 moses 50;
#X obj 621 225 bng 15 250 50 0 empty empty empty 17 7 0 10 #fcfcfc #000000 #000000;
#X floatatom 470 61 5 0 0 0 - - - 0;
#X obj 99 167 random 100;
#X obj 560 170 random 100;
#X obj 99 194 moses 20;
#X obj 172 194 moses 60;
#X obj 470 33 r \$0-state;
#X obj 99 284 s \$0-state;
#X obj 560 275 s \$0-state;
#X obj 415 357 r \$0-state;
#X obj 433 8 inlet;
#X obj 415 385 outlet;
#X obj 99 246 f 2;
#X obj 172 246 f 4;
#X obj 233 247 f 5;
#X obj 560 244 f 2;
#X obj 621 245 f 5;
#X obj 366 226 bng 15 250 50 0 empty empty empty 17 7 0 10 #fcfcfc #000000 #000000;
#X obj 439 226 bng 15 250 50 0 empty empty empty 17 7 0 10 #fcfcfc #000000 #000000;
#X obj 500 227 bng 15 250 50 0 empty empty empty 17 7 0 10 #fcfcfc #000000 #000000;
#X obj 300 149 bng 15 250 50 0 empty empty empty 17 7 0 10 #fcfcfc #000000 #000000;
#X obj 300 169 random 100;
#X obj 439 194 moses 60;
#X obj 300 284 s \$0-state;
#X obj 366 246 f 2;
#X obj 439 246 f 4;
#X obj 500 247 f 5;
#X obj 300 194 moses 5;
#X obj 300 227 bng 15 250 50 0 empty empty empty 17 7 0 10 #fcfcfc #000000 #000000;
#X obj 776 229 bng 15 250 50 0 empty empty empty 17 7 0 10 #fcfcfc #000000 #000000;
#X obj 849 229 bng 15 250 50 0 empty empty empty 17 7 0 10 #fcfcfc #000000 #000000;
#X obj 910 230 bng 15 250 50 0 empty empty empty 17 7 0 10 #fcfcfc #000000 #000000;
#X obj 711 152 bng 15 250 50 0 empty empty empty 17 7 0 10 #fcfcfc #000000 #000000;
#X obj 711 172 random 100;
#X obj 849 197 moses 60;
#X obj 711 281 s \$0-state;
#X obj 776 249 f 2;
#X obj 849 249 f 4;
#X obj 910 250 f 5;
#X obj 711 197 moses 5;
#X obj 711 230 bng 15 250 50 0 empty empty empty 17 7 0 10 #fcfcfc #000000 #000000;
#X obj 433 90 sel 0 2 4 5;
#X obj 300 247 f 0;
#X obj 711 250 f 0;
#X obj 366 194 moses 45;
#X obj 776 197 moses 45;
#X obj 433 60 f 2;
#X connect 0 0 19 0;
#X connect 1 0 20 0;
#X connect 2 0 21 0;
#X connect 3 0 9 0;
#X connect 4 0 22 0;
#X connect 5 0 10 0;
#X connect 6 0 4 0;
#X connect 6 1 7 0;
#X connect 7 0 23 0;
#X connect 9 0 11 0;
#X connect 10 0 6 0;
#X connect 11 0 0 0;
#X connect 11 1 12 0;
#X connect 12 0 1 0;
#X connect 12 1 2 0;
#X connect 13 0 8 0;
#X connect 13 0 53 1;
#X connect 16 0 18 0;
#X connect 17 0 53 0;
#X connect 19 0 14 0;
#X connect 20 0 14 0;
#X connect 21 0 14 0;
#X connect 22 0 15 0;
#X connect 23 0 15 0;
#X connect 24 0 31 0;
#X connect 25 0 32 0;
#X connect 26 0 33 0;
#X connect 27 0 28 0;
#X connect 28 0 34 0;
#X connect 29 0 25 0;
#X connect 29 1 26 0;
#X connect 31 0 30 0;
#X connect 32 0 30 0;
#X connect 33 0 30 0;
#X connect 34 0 35 0;
#X connect 34 1 51 0;
#X connect 35 0 49 0;
#X connect 36 0 43 0;
#X connect 37 0 44 0;
#X connect 38 0 45 0;
#X connect 39 0 40 0;
#X connect 40 0 46 0;
#X connect 41 0 37 0;
#X connect 41 1 38 0;
#X connect 43 0 42 0;
#X connect 44 0 42 0;
#X connect 45 0 42 0;
#X connect 46 0 47 0;
#X connect 46 1 52 0;
#X connect 47 0 50 0;
#X connect 48 0 3 0;
#X connect 48 1 27 0;
#X connect 48 2 5 0;
#X connect 48 3 39 0;
#X connect 49 0 30 0;
#X connect 50 0 42 0;
#X connect 51 0 24 0;
#X connect 51 1 29 0;
#X connect 52 0 36 0;
#X connect 52 1 41 0;
#X connect 53 0 48 0;
#X restore 74 83 pd markov_chain;
#X connect 0 0 2 0;
#X connect 2 0 3 0;
#X connect 2 1 4 0;
#X connect 3 0 1 0;
#X connect 4 0 3 1;
#X restore 695 200 pd seconda_voce;
#X obj 691 59 random 100;
#X obj 691 130 f 1;
#X obj 755 130 f 2;
#X obj 691 106 bng 15 100 50 0 empty empty empty 17 7 0 10 #fcfcfc #000000 #000000;
#X obj 755 106 bng 15 100 50 0 empty empty empty 17 7 0 10 #fcfcfc #000000 #000000;
#X obj 800 106 bng 15 100 50 0 empty empty empty 17 7 0 10 #fcfcfc #000000 #000000;
#X obj 691 84 moses 70;
#X obj 800 130 f 4;
#X obj 755 84 moses 95;
#X obj 541 256 + 48;
#X obj 695 258 + 48;
#X obj 326 71 loadbang;
#X obj 326 41 array define \$0-scala 15;
#X obj 326 138 array set \$0-scala;
#X obj 541 225 tabread \$0-scala;
#X obj 695 227 tabread \$0-scala;
#X obj 541 163 cyclone/drunk 9 4;
#X obj 540 124 bng 19 250 50 0 empty empty empty 0 -10 0 12 #fcfcfc #000000 #000000;
#X obj 830 227 tabread \$0-scala;
#N canvas 1161 247 679 469 terza_voce 0;
#X obj 37 30 inlet;
#X obj 37 130 outlet;
#X obj 37 55 t f b;
#X obj 37 103 +;
#N canvas 94 84 1053 556 markov_chain 0;
#X obj 99 226 bng 15 250 50 0 empty empty empty 17 7 0 10 #fcfcfc #000000 #000000;
#X obj 172 226 bng 15 250 50 0 empty empty empty 17 7 0 10 #fcfcfc #000000 #000000;
#X obj 233 227 bng 15 250 50 0 empty empty empty 17 7 0 10 #fcfcfc #000000 #000000;
#X obj 99 147 bng 15 250 50 0 empty empty empty 17 7 0 10 #fcfcfc #000000 #000000;
#X obj 560 224 bng 15 250 50 0 empty empty empty 17 7 0 10 #fcfcfc #000000 #000000;
#X obj 560 150 bng 15 250 50 0 empty empty empty 17 7 0 10 #fcfcfc #000000 #000000;
#X obj 560 195 moses 50;
#X obj 621 225 bng 15 250 50 0 empty empty empty 17 7 0 10 #fcfcfc #000000 #000000;
#X floatatom 470 61 5 0 0 0 - - - 0;
#X obj 99 167 random 100;
#X obj 560 170 random 100;
#X obj 99 194 moses 20;
#X obj 172 194 moses 60;
#X obj 470 33 r \$0-state;
#X obj 99 284 s \$0-state;
#X obj 560 275 s \$0-state;
#X obj 415 357 r \$0-state;
#X obj 433 8 inlet;
#X obj 415 385 outlet;
#X obj 99 246 f 2;
#X obj 172 246 f 4;
#X obj 233 247 f 5;
#X obj 560 244 f 2;
#X obj 621 245 f 5;
#X obj 366 226 bng 15 250 50 0 empty empty empty 17 7 0 10 #fcfcfc #000000 #000000;
#X obj 439 226 bng 15 250 50 0 empty empty empty 17 7 0 10 #fcfcfc #000000 #000000;
#X obj 500 227 bng 15 250 50 0 empty empty empty 17 7 0 10 #fcfcfc #000000 #000000;
#X obj 300 149 bng 15 250 50 0 empty empty empty 17 7 0 10 #fcfcfc #000000 #000000;
#X obj 300 169 random 100;
#X obj 439 194 moses 60;
#X obj 300 284 s \$0-state;
#X obj 366 246 f 2;
#X obj 439 246 f 4;
#X obj 500 247 f 5;
#X obj 300 194 moses 5;
#X obj 300 227 bng 15 250 50 0 empty empty empty 17 7 0 10 #fcfcfc #000000 #000000;
#X obj 776 229 bng 15 250 50 0 empty empty empty 17 7 0 10 #fcfcfc #000000 #000000;
#X obj 849 229 bng 15 250 50 0 empty empty empty 17 7 0 10 #fcfcfc #000000 #000000;
#X obj 910 230 bng 15 250 50 0 empty empty empty 17 7 0 10 #fcfcfc #000000 #000000;
#X obj 711 152 bng 15 250 50 0 empty empty empty 17 7 0 10 #fcfcfc #000000 #000000;
#X obj 711 172 random 100;
#X obj 849 197 moses 60;
#X obj 711 281 s \$0-state;
#X obj 776 249 f 2;
#X obj 849 249 f 4;
#X obj 910 250 f 5;
#X obj 711 197 moses 5;
#X obj 711 230 bng 15 250 50 0 empty empty empty 17 7 0 10 #fcfcfc #000000 #000000;
#X obj 433 90 sel 0 2 4 5;
#X obj 300 247 f 0;
#X obj 711 250 f 0;
#X obj 366 194 moses 45;
#X obj 776 197 moses 45;
#X obj 433 60 f 2;
#X connect 0 0 19 0;
#X connect 1 0 20 0;
#X connect 2 0 21 0;
#X connect 3 0 9 0;
#X connect 4 0 22 0;
#X connect 5 0 10 0;
#X connect 6 0 4 0;
#X connect 6 1 7 0;
#X connect 7 0 23 0;
#X connect 9 0 11 0;
#X connect 10 0 6 0;
#X connect 11 0 0 0;
#X connect 11 1 12 0;
#X connect 12 0 1 0;
#X connect 12 1 2 0;
#X connect 13 0 8 0;
#X connect 13 0 53 1;
#X connect 16 0 18 0;
#X connect 17 0 53 0;
#X connect 19 0 14 0;
#X connect 20 0 14 0;
#X connect 21 0 14 0;
#X connect 22 0 15 0;
#X connect 23 0 15 0;
#X connect 24 0 31 0;
#X connect 25 0 32 0;
#X connect 26 0 33 0;
#X connect 27 0 28 0;
#X connect 28 0 34 0;
#X connect 29 0 25 0;
#X connect 29 1 26 0;
#X connect 31 0 30 0;
#X connect 32 0 30 0;
#X connect 33 0 30 0;
#X connect 34 0 35 0;
#X connect 34 1 51 0;
#X connect 35 0 49 0;
#X connect 36 0 43 0;
#X connect 37 0 44 0;
#X connect 38 0 45 0;
#X connect 39 0 40 0;
#X connect 40 0 46 0;
#X connect 41 0 37 0;
#X connect 41 1 38 0;
#X connect 43 0 42 0;
#X connect 44 0 42 0;
#X connect 45 0 42 0;
#X connect 46 0 47 0;
#X connect 46 1 52 0;
#X connect 47 0 50 0;
#X connect 48 0 3 0;
#X connect 48 1 27 0;
#X connect 48 2 5 0;
#X connect 48 3 39 0;
#X connect 49 0 30 0;
#X connect 50 0 42 0;
#X connect 51 0 24 0;
#X connect 51 1 29 0;
#X connect 52 0 36 0;
#X connect 52 1 41 0;
#X connect 53 0 48 0;
#X restore 74 83 pd markov_chain;
#X connect 0 0 2 0;
#X connect 2 0 3 0;
#X connect 2 1 4 0;
#X connect 3 0 1 0;
#X connect 4 0 3 1;
#X restore 830 200 pd terza_voce;
#X obj 830 258 + 24;
#X obj 957 227 tabread \$0-scala;
#X obj 957 258 + 72;
#X obj 821 1329 dac~;
#X obj 640 922 tgl 15 1 empty empty empty 17 7 0 10 #fcfcfc #000000 #000000 1 1;
#X obj 640 942 switch~;
#X obj 1721 596 vsl 19 162 0.0025 0.166 1 0 empty empty empty 0 -9 2 12 #9c00ff #000000 #000000 0 1;
#N canvas 4 4 1920 1016 fader 0;
#X obj 223 168 cyclone/curve~;
#X obj 261 210 snapshot~;
#X floatatom 363 309 5 0 0 0 - - - 0;
#X obj 455 250 tgl 19 0 empty empty empty 0 -10 0 12 #fcfcfc #000000 #000000 0 1;
#X obj 102 22 inlet;
#X obj 279 27 inlet;
#X obj 361 410 outlet;
#X obj 444 296 metro 50;
#X obj 689 255 loadbang;
#X obj 464 54 inlet;
#X msg 123 82 127 2000 0;
#X msg 277 93 0 2000 0;
#X connect 0 0 1 0;
#X connect 1 0 2 0;
#X connect 2 0 6 0;
#X connect 3 0 7 0;
#X connect 4 0 10 0;
#X connect 5 0 11 0;
#X connect 7 0 1 0;
#X connect 8 0 3 0;
#X connect 9 0 2 0;
#X connect 10 0 0 0;
#X connect 11 0 0 0;
#X restore 454 326 pd fader;
#X obj 443 227 bng 19 250 50 0 empty empty empty 0 -10 0 12 #fcfcfc #000000 #000000;
#X obj 499 225 bng 19 250 50 0 empty empty empty 0 -10 0 12 #fcfcfc #000000 #000000;
#N canvas 4 4 1920 1016 fader 0;
#X obj 223 168 cyclone/curve~;
#X obj 261 210 snapshot~;
#X floatatom 363 309 5 0 0 0 - - - 0;
#X obj 455 250 tgl 19 0 empty empty empty 0 -10 0 12 #fcfcfc #000000 #000000 0 1;
#X obj 102 22 inlet;
#X obj 279 27 inlet;
#X obj 361 410 outlet;
#X obj 444 296 metro 50;
#X obj 689 255 loadbang;
#X obj 464 54 inlet;
#X msg 123 82 127 2000 0;
#X msg 277 93 0 2000 0;
#X connect 0 0 1 0;
#X connect 1 0 2 0;
#X connect 2 0 6 0;
#X connect 3 0 7 0;
#X connect 4 0 10 0;
#X connect 5 0 11 0;
#X connect 7 0 1 0;
#X connect 8 0 3 0;
#X connect 9 0 2 0;
#X connect 10 0 0 0;
#X connect 11 0 0 0;
#X restore 685 408 pd fader;
#X obj 691 370 bng 19 250 50 0 empty empty empty 0 -10 0 12 #fcfcfc #000000 #000000;
#X obj 747 368 bng 19 250 50 0 empty empty empty 0 -10 0 12 #fcfcfc #000000 #000000;
#N canvas 4 4 1920 1016 fader 0;
#X obj 223 168 cyclone/curve~;
#X obj 261 210 snapshot~;
#X floatatom 363 309 5 0 0 0 - - - 0;
#X obj 455 250 tgl 19 0 empty empty empty 0 -10 0 12 #fcfcfc #000000 #000000 0 1;
#X obj 102 22 inlet;
#X obj 279 27 inlet;
#X obj 361 410 outlet;
#X obj 444 296 metro 50;
#X obj 689 255 loadbang;
#X obj 464 54 inlet;
#X msg 123 82 127 2000 0;
#X msg 277 93 0 2000 0;
#X connect 0 0 1 0;
#X connect 1 0 2 0;
#X connect 2 0 6 0;
#X connect 3 0 7 0;
#X connect 4 0 10 0;
#X connect 5 0 11 0;
#X connect 7 0 1 0;
#X connect 8 0 3 0;
#X connect 9 0 2 0;
#X connect 10 0 0 0;
#X connect 11 0 0 0;
#X restore 832 409 pd fader;
#X obj 828 362 bng 19 250 50 0 empty empty empty 0 -10 0 12 #fcfcfc #000000 #000000;
#X obj 884 360 bng 19 250 50 0 empty empty empty 0 -10 0 12 #fcfcfc #000000 #000000;
#N canvas 4 4 1920 1016 fader 0;
#X obj 223 168 cyclone/curve~;
#X obj 261 210 snapshot~;
#X floatatom 363 309 5 0 0 0 - - - 0;
#X obj 455 250 tgl 19 0 empty empty empty 0 -10 0 12 #fcfcfc #000000 #000000 0 1;
#X obj 102 22 inlet;
#X obj 279 27 inlet;
#X obj 361 410 outlet;
#X obj 444 296 metro 50;
#X obj 689 255 loadbang;
#X obj 464 54 inlet;
#X msg 123 82 127 2000 0;
#X msg 277 93 0 2000 0;
#X connect 0 0 1 0;
#X connect 1 0 2 0;
#X connect 2 0 6 0;
#X connect 3 0 7 0;
#X connect 4 0 10 0;
#X connect 5 0 11 0;
#X connect 7 0 1 0;
#X connect 8 0 3 0;
#X connect 9 0 2 0;
#X connect 10 0 0 0;
#X connect 11 0 0 0;
#X restore 1037 420 pd fader;
#X obj 1033 373 bng 19 250 50 0 empty empty empty 0 -10 0 12 #fcfcfc #000000 #000000;
#X obj 1089 371 bng 19 250 50 0 empty empty empty 0 -10 0 12 #fcfcfc #000000 #000000;
#X obj 532 288 t b f;
#X obj 688 291 t b f;
#X obj 818 294 t b f;
#X obj 1006 295 t b f;
#N canvas 1161 247 679 469 quarta_voce 0;
#X obj 37 30 inlet;
#X obj 37 130 outlet;
#X obj 37 55 t f b;
#X obj 37 103 +;
#N canvas 94 84 1053 556 markov_chain 0;
#X obj 99 226 bng 15 250 50 0 empty empty empty 17 7 0 10 #fcfcfc #000000 #000000;
#X obj 172 226 bng 15 250 50 0 empty empty empty 17 7 0 10 #fcfcfc #000000 #000000;
#X obj 233 227 bng 15 250 50 0 empty empty empty 17 7 0 10 #fcfcfc #000000 #000000;
#X obj 99 147 bng 15 250 50 0 empty empty empty 17 7 0 10 #fcfcfc #000000 #000000;
#X obj 560 224 bng 15 250 50 0 empty empty empty 17 7 0 10 #fcfcfc #000000 #000000;
#X obj 560 150 bng 15 250 50 0 empty empty empty 17 7 0 10 #fcfcfc #000000 #000000;
#X obj 560 195 moses 50;
#X obj 621 225 bng 15 250 50 0 empty empty empty 17 7 0 10 #fcfcfc #000000 #000000;
#X floatatom 470 61 5 0 0 0 - - - 0;
#X obj 99 167 random 100;
#X obj 560 170 random 100;
#X obj 99 194 moses 20;
#X obj 172 194 moses 60;
#X obj 470 33 r \$0-state;
#X obj 99 284 s \$0-state;
#X obj 560 275 s \$0-state;
#X obj 415 357 r \$0-state;
#X obj 433 8 inlet;
#X obj 415 385 outlet;
#X obj 99 246 f 2;
#X obj 172 246 f 4;
#X obj 233 247 f 5;
#X obj 560 244 f 2;
#X obj 621 245 f 5;
#X obj 366 226 bng 15 250 50 0 empty empty empty 17 7 0 10 #fcfcfc #000000 #000000;
#X obj 439 226 bng 15 250 50 0 empty empty empty 17 7 0 10 #fcfcfc #000000 #000000;
#X obj 500 227 bng 15 250 50 0 empty empty empty 17 7 0 10 #fcfcfc #000000 #000000;
#X obj 300 149 bng 15 250 50 0 empty empty empty 17 7 0 10 #fcfcfc #000000 #000000;
#X obj 300 169 random 100;
#X obj 439 194 moses 60;
#X obj 300 284 s \$0-state;
#X obj 366 246 f 2;
#X obj 439 246 f 4;
#X obj 500 247 f 5;
#X obj 300 194 moses 5;
#X obj 300 227 bng 15 250 50 0 empty empty empty 17 7 0 10 #fcfcfc #000000 #000000;
#X obj 776 229 bng 15 250 50 0 empty empty empty 17 7 0 10 #fcfcfc #000000 #000000;
#X obj 849 229 bng 15 250 50 0 empty empty empty 17 7 0 10 #fcfcfc #000000 #000000;
#X obj 910 230 bng 15 250 50 0 empty empty empty 17 7 0 10 #fcfcfc #000000 #000000;
#X obj 711 152 bng 15 250 50 0 empty empty empty 17 7 0 10 #fcfcfc #000000 #000000;
#X obj 711 172 random 100;
#X obj 849 197 moses 60;
#X obj 711 281 s \$0-state;
#X obj 776 249 f 2;
#X obj 849 249 f 4;
#X obj 910 250 f 5;
#X obj 711 197 moses 5;
#X obj 711 230 bng 15 250 50 0 empty empty empty 17 7 0 10 #fcfcfc #000000 #000000;
#X obj 433 90 sel 0 2 4 5;
#X obj 300 247 f 0;
#X obj 711 250 f 0;
#X obj 366 194 moses 45;
#X obj 776 197 moses 45;
#X obj 433 60 f 2;
#X connect 0 0 19 0;
#X connect 1 0 20 0;
#X connect 2 0 21 0;
#X connect 3 0 9 0;
#X connect 4 0 22 0;
#X connect 5 0 10 0;
#X connect 6 0 4 0;
#X connect 6 1 7 0;
#X connect 7 0 23 0;
#X connect 9 0 11 0;
#X connect 10 0 6 0;
#X connect 11 0 0 0;
#X connect 11 1 12 0;
#X connect 12 0 1 0;
#X connect 12 1 2 0;
#X connect 13 0 8 0;
#X connect 13 0 53 1;
#X connect 16 0 18 0;
#X connect 17 0 53 0;
#X connect 19 0 14 0;
#X connect 20 0 14 0;
#X connect 21 0 14 0;
#X connect 22 0 15 0;
#X connect 23 0 15 0;
#X connect 24 0 31 0;
#X connect 25 0 32 0;
#X connect 26 0 33 0;
#X connect 27 0 28 0;
#X connect 28 0 34 0;
#X connect 29 0 25 0;
#X connect 29 1 26 0;
#X connect 31 0 30 0;
#X connect 32 0 30 0;
#X connect 33 0 30 0;
#X connect 34 0 35 0;
#X connect 34 1 51 0;
#X connect 35 0 49 0;
#X connect 36 0 43 0;
#X connect 37 0 44 0;
#X connect 38 0 45 0;
#X connect 39 0 40 0;
#X connect 40 0 46 0;
#X connect 41 0 37 0;
#X connect 41 1 38 0;
#X connect 43 0 42 0;
#X connect 44 0 42 0;
#X connect 45 0 42 0;
#X connect 46 0 47 0;
#X connect 46 1 52 0;
#X connect 47 0 50 0;
#X connect 48 0 3 0;
#X connect 48 1 27 0;
#X connect 48 2 5 0;
#X connect 48 3 39 0;
#X connect 49 0 30 0;
#X connect 50 0 42 0;
#X connect 51 0 24 0;
#X connect 51 1 29 0;
#X connect 52 0 36 0;
#X connect 52 1 41 0;
#X connect 53 0 48 0;
#X restore 74 83 pd markov_chain;
#X connect 0 0 2 0;
#X connect 2 0 3 0;
#X connect 2 1 4 0;
#X connect 3 0 1 0;
#X connect 4 0 3 1;
#X restore 957 200 pd quarta_voce;
#X obj 79 665 moses 1;
#X obj 221 663 moses 1;
#X obj 369 669 moses 1;
#X obj 524 668 moses 1;
#X obj 18 710 send on1;
#X obj 94 708 send off1;
#X obj 504 706 send on4;
#X obj 582 709 send off4;
#X obj 422 703 send off3;
#X obj 347 705 send on3;
#X obj 257 704 send off2;
#X obj 181 706 send on2;
#X obj 357 181 receive on1;
#X obj 450 182 receive off1;
#X obj 589 327 receive on2;
#X obj 682 328 receive off2;
#X obj 809 321 receive on3;
#X obj 902 322 receive off3;
#X obj 1004 328 receive on4;
#X obj 1097 329 receive off4;
#X obj 1059 617 + 1;
#X msg 326 98 0 2 4 6 7 9 11 12 14 16 18 19 21 23 24;
#N canvas 921 109 888 827 granular 0;
#X obj 341 892 delwrite~ b1 5000;
#X obj 71 742 vd~ b1;
#X obj 47 405 phasor~;
#X obj 48 585 *~ -1;
#X obj 48 610 +~ 1;
#X obj 148 699 sig~ 1;
#X obj 213 707 cos~;
#X obj 149 732 -~;
#X obj 150 757 *~ 0.5;
#X obj 71 786 *~;
#X obj 79 672 samphold~;
#X obj 48 699 *~;
#X obj 80 644 sig~;
#X floatatom 157 384 5 0 0 0 - - - 0;
#X floatatom 110 307 10 0 0 0 - - - 0;
#X floatatom 79 367 5 0 0 0 - - - 0;
#X floatatom 241 233 5 0 0 0 - - - 0;
#X obj 241 254 t b f;
#X obj 157 358 / 44.1;
#X obj 458 722 vd~ b1;
#X obj 434 554 *~ -1;
#X obj 435 587 +~ 1;
#X obj 528 683 sig~ 1;
#X obj 592 690 cos~;
#X obj 529 714 -~;
#X obj 530 739 *~ 0.5;
#X obj 457 771 *~;
#X obj 469 652 samphold~;
#X obj 435 679 *~;
#X obj 470 624 sig~;
#X obj 455 467 +~ 0.5;
#X obj 455 489 wrap~;
#X obj 108 171 t b f;
#X obj 110 328 expr (pow(2 \, ($f2/12)) - 1) * (44100/$f1);
#X obj 440 851 *~;
#X text 252 714 Hanning;
#X text 337 34 3.7.2.2. Granular live Feedback;
#X text 478 955 www.pd-tutorial.com;
#X text 497 932 Johannes Kreidler;
#X obj 248 840 inlet~;
#X obj 143 928 outlet~;
#X obj 127 872 *~ 1;
#X obj 509 787 inlet;
#X obj 255 61 inlet;
#X obj 304 153 inlet;
#X connect 1 0 9 0;
#X connect 2 0 3 0;
#X connect 2 0 6 0;
#X connect 2 0 10 1;
#X connect 2 0 30 0;
#X connect 3 0 4 0;
#X connect 4 0 11 0;
#X connect 5 0 7 0;
#X connect 6 0 7 1;
#X connect 7 0 8 0;
#X connect 8 0 9 1;
#X connect 9 0 34 0;
#X connect 9 0 41 0;
#X connect 10 0 11 1;
#X connect 11 0 1 0;
#X connect 12 0 10 0;
#X connect 13 0 29 0;
#X connect 13 0 12 0;
#X connect 14 0 18 0;
#X connect 14 0 33 0;
#X connect 15 0 2 0;
#X connect 16 0 17 0;
#X connect 17 0 14 0;
#X connect 17 1 33 1;
#X connect 18 0 13 0;
#X connect 19 0 26 0;
#X connect 20 0 21 0;
#X connect 21 0 28 0;
#X connect 22 0 24 0;
#X connect 23 0 24 1;
#X connect 24 0 25 0;
#X connect 25 0 26 1;
#X connect 26 0 34 0;
#X connect 26 0 41 0;
#X connect 27 0 28 1;
#X connect 28 0 19 0;
#X connect 29 0 27 0;
#X connect 30 0 31 0;
#X connect 31 0 20 0;
#X connect 31 0 27 1;
#X connect 31 0 23 0;
#X connect 32 0 16 0;
#X connect 32 1 14 0;
#X connect 33 0 15 0;
#X connect 34 0 0 0;
#X connect 39 0 0 0;
#X connect 39 1 0 0;
#X connect 41 0 40 0;
#X connect 42 0 34 1;
#X connect 43 0 32 0;
#X connect 44 0 16 0;
#X restore 864 1113 pd granular;
#X f 32;
#X obj 909 941 vsl 15 128 100 30000 0 0 empty empty empty 0 -8 0 8 #ff0400 #000000 #000000 0 1;
#X text 928 934 30000;
#X text 926 1058 100;
#X text 874 913 window width;
#X obj 1019 947 vsl 15 128 -12 12 0 0 empty empty empty 0 -8 0 8 #00faff #000000 #000000 0 0;
#X text 1035 1060 -36;
#X text 1039 943 36;
#X text 1011 924 Transposition (Half steps);
#X floatatom 1094 1021 5 0 1 0 - - - 0;
#X text 1143 1020 0-1;
#X floatatom 1018 1083 5 0 0 0 - - - 0;
#N canvas 114 114 746 492 drywet 0;
#X obj 137 266 *~;
#X obj 287 278 *~;
#X obj 562 50 inlet~;
#X obj 34 33 inlet~;
#X obj 216 33 vsl 15 128 0 1 0 0 empty empty empty 0 -9 0 10 #fcfcfc #000000 #000000 0 1;
#X obj 236 181 - 1;
#X floatatom 236 239 5 0 0 0 - - - 0;
#X obj 236 211 * -1;
#X floatatom 197 239 5 0 0 0 - - - 0;
#X text 478 49 Wet inlet;
#X obj 196 333 +~;
#X obj 196 376 outlet~;
#X text 95 34 Dry inlet;
#X text 213 8 Mix;
#X text 240 29 All wet;
#X text 237 150 All dry;
#X obj 320 34 inlet;
#X connect 0 0 10 0;
#X connect 1 0 10 1;
#X connect 2 0 0 0;
#X connect 3 0 1 0;
#X connect 4 0 5 0;
#X connect 4 0 8 0;
#X connect 5 0 7 0;
#X connect 6 0 1 1;
#X connect 7 0 6 0;
#X connect 8 0 0 1;
#X connect 10 0 11 0;
#X connect 16 0 4 0;
#X restore 770 1264 pd drywet;
#X obj 460 840 hsl 162 19 0 1 0 0 empty empty empty -2 -10 0 12 #00ff04 #000000 #000000 0 1;
#X obj 820 1294 rev2~ 100 70 3000 20;
#X obj 541 66 metro 3000;
#X obj 691 163 * 3000;
#X obj 866 1242 cyclone/degrade~;
#X floatatom 926 1211 5 0 0 0 - - - 0;
#X floatatom 995 1210 5 0 0 0 - - - 0;
#N canvas 4 4 1920 1016 Fxfader 0;
#X obj 223 168 cyclone/curve~;
#X obj 261 210 snapshot~;
#X floatatom 363 309 5 0 0 0 - - - 0;
#X obj 455 250 tgl 19 0 empty empty empty 0 -10 0 12 #fcfcfc #000000 #000000 0 1;
#X obj 102 22 inlet;
#X obj 361 410 outlet;
#X obj 444 296 metro 50;
#X obj 689 255 loadbang;
#X msg 123 82 1 1500 0.5 0 2000 -0.5;
#X obj 44 73 inlet;
#X msg 28 159 1 3 -1 0 50 -0.5;
#X connect 0 0 1 0;
#X connect 1 0 2 0;
#X connect 2 0 5 0;
#X connect 3 0 6 0;
#X connect 4 0 8 0;
#X connect 6 0 1 0;
#X connect 7 0 3 0;
#X connect 8 0 0 0;
#X connect 9 0 10 0;
#X connect 10 0 0 0;
#X restore 273 833 pd Fxfader;
#X obj 67 581 unpack symbol 0 0 0 0 0, f 48;
#X obj 276 755 moses 1;
#X obj 291 800 bng 19 250 50 0 empty empty empty 0 -10 0 12 #fcfcfc #000000 #000000;
#X obj 756 754 *~ 0.167;
#X obj 34 1019 cyclone/reson~, f 34;
#X obj 218 788 bng 19 250 50 0 empty empty empty 0 -10 0 12 #fcfcfc #000000 #000000;
#X obj 389 970 +;
#X obj 425 914 t b f;
#X floatatom 150 910 5 0 0 0 - - - 0;
#X floatatom 193 910 5 0 0 0 - - - 0;
#X obj 180 976 *;
#X obj 190 939 t b f;
#X obj 411 1075 *~;
#X obj 326 1023 cyclone/curve~;
#X obj 14 801 cyclone/click~ 255;
#X obj 449 1037 cyclone/degrade~;
#X floatatom 482 983 5 0 0 0 - - - 0;
#X floatatom 551 982 5 0 0 0 - - - 0;
#X msg 244 964 0.8 200 0.7 0 1500 0;
#X obj 607 554 poly 12 1;
#X obj 720 700 clone Modal 12;
#X obj 548 10 loadbang;
#X msg 1700 546 0.166;
#X obj 1685 496 loadbang;
#X msg 839 568 1000;
#X msg 948 564 1300;
#X msg 1006 563 0.5;
#X msg 1142 548 5000;
#X msg 1213 554 3000;
#X msg 1312 552 1;
#X obj 1155 454 loadbang;
#X obj 978 773 loadbang;
#X msg 888 822 30000;
#X msg 1002 826 0.1;
#X msg 1104 822 0.99;
#X msg 929 1169 0.8;
#X msg 1000 1172 8;
#X obj 1152 1116 loadbang;
#X obj 127 842 loadbang;
#X msg 90 872 880;
#X msg 195 869 1.5;
#X msg 484 946 0.8;
#X msg 553 947 8;
#X obj 521 898 loadbang;
#X connect 0 0 16 0;
#X connect 2 0 16 3;
#X connect 3 0 16 4;
#X connect 4 0 16 5;
#X connect 8 0 85 0;
#X connect 10 0 16 7;
#X connect 11 0 16 8;
#X connect 14 0 16 9;
#X connect 16 0 1 0;
#X connect 16 0 128 0;
#X connect 17 0 18 0;
#X connect 18 0 108 0;
#X connect 19 0 102 0;
#X connect 20 0 36 0;
#X connect 21 0 27 0;
#X connect 22 0 103 0;
#X connect 23 0 103 0;
#X connect 24 0 22 0;
#X connect 25 0 23 0;
#X connect 26 0 28 0;
#X connect 27 0 24 0;
#X connect 27 1 29 0;
#X connect 28 0 103 0;
#X connect 29 0 25 0;
#X connect 29 1 26 0;
#X connect 30 0 60 0;
#X connect 31 0 61 0;
#X connect 32 0 86 0;
#X connect 35 0 30 0;
#X connect 36 0 31 0;
#X connect 37 0 35 0;
#X connect 37 0 20 0;
#X connect 37 0 40 0;
#X connect 37 0 64 0;
#X connect 38 0 37 0;
#X connect 39 0 41 0;
#X connect 40 0 39 0;
#X connect 41 0 62 0;
#X connect 42 0 43 0;
#X connect 43 0 63 0;
#X connect 45 0 46 0;
#X connect 47 0 111 1;
#X connect 48 0 127 1;
#X connect 49 0 48 0;
#X connect 50 0 48 1;
#X connect 51 0 127 1;
#X connect 52 0 51 0;
#X connect 53 0 51 1;
#X connect 54 0 127 1;
#X connect 55 0 54 0;
#X connect 56 0 54 1;
#X connect 57 0 127 1;
#X connect 58 0 57 0;
#X connect 59 0 57 1;
#X connect 60 0 48 2;
#X connect 60 1 127 0;
#X connect 61 0 51 2;
#X connect 61 1 127 0;
#X connect 62 0 54 2;
#X connect 62 1 127 0;
#X connect 63 0 57 2;
#X connect 63 1 127 0;
#X connect 64 0 42 0;
#X connect 65 0 69 0;
#X connect 65 1 70 0;
#X connect 66 0 76 0;
#X connect 66 1 75 0;
#X connect 67 0 74 0;
#X connect 67 1 73 0;
#X connect 68 0 71 0;
#X connect 68 1 72 0;
#X connect 77 0 49 0;
#X connect 78 0 50 0;
#X connect 79 0 52 0;
#X connect 80 0 53 0;
#X connect 81 0 55 0;
#X connect 82 0 56 0;
#X connect 83 0 58 0;
#X connect 84 0 59 0;
#X connect 85 0 16 6;
#X connect 86 0 34 0;
#X connect 87 0 104 0;
#X connect 88 0 87 1;
#X connect 92 0 98 0;
#X connect 96 0 87 3;
#X connect 98 0 87 2;
#X connect 99 0 101 0;
#X connect 100 0 115 0;
#X connect 101 0 44 0;
#X connect 101 1 44 1;
#X connect 102 0 21 0;
#X connect 102 0 38 0;
#X connect 103 0 102 1;
#X connect 104 0 99 2;
#X connect 105 0 104 1;
#X connect 106 0 104 2;
#X connect 107 0 114 0;
#X connect 108 1 65 0;
#X connect 108 2 66 0;
#X connect 108 3 67 0;
#X connect 108 4 68 0;
#X connect 108 5 109 0;
#X connect 109 0 113 0;
#X connect 109 1 110 0;
#X connect 110 0 107 1;
#X connect 111 0 87 0;
#X connect 111 0 99 0;
#X connect 112 0 120 0;
#X connect 113 0 126 0;
#X connect 113 0 122 0;
#X connect 114 0 99 1;
#X connect 115 0 114 0;
#X connect 115 1 114 1;
#X connect 116 0 112 2;
#X connect 116 0 118 0;
#X connect 117 0 119 0;
#X connect 118 0 112 1;
#X connect 118 0 112 3;
#X connect 119 0 118 0;
#X connect 119 1 118 1;
#X connect 120 0 123 0;
#X connect 121 0 120 1;
#X connect 122 0 112 0;
#X connect 123 0 101 0;
#X connect 124 0 123 1;
#X connect 125 0 123 2;
#X connect 126 0 121 0;
#X connect 127 0 0 0;
#X connect 127 1 16 1;
#X connect 127 2 16 2;
#X connect 128 0 111 0;
#X connect 129 0 19 0;
#X connect 130 0 47 0;
#X connect 131 0 130 0;
#X connect 132 0 2 0;
#X connect 133 0 3 0;
#X connect 134 0 4 0;
#X connect 135 0 10 0;
#X connect 136 0 11 0;
#X connect 137 0 14 0;
#X connect 138 0 132 0;
#X connect 138 0 133 0;
#X connect 138 0 134 0;
#X connect 138 0 8 0;
#X connect 138 0 135 0;
#X connect 138 0 136 0;
#X connect 138 0 137 0;
#X connect 139 0 140 0;
#X connect 139 0 141 0;
#X connect 139 0 142 0;
#X connect 140 0 88 0;
#X connect 141 0 92 0;
#X connect 142 0 96 0;
#X connect 143 0 105 0;
#X connect 144 0 106 0;
#X connect 145 0 143 0;
#X connect 145 0 144 0;
#X connect 146 0 147 0;
#X connect 146 0 148 0;
#X connect 147 0 116 0;
#X connect 148 0 117 0;
#X connect 149 0 124 0;
#X connect 150 0 125 0;
#X connect 151 0 149 0;
#X connect 151 0 150 0;
