#N canvas 567 367 1129 1003 12;
#X obj 713 311 output~;
#X obj 724 56 notein 1;
#X obj 719 155 - 1;
#X listbox 945 281 41 0 0 0 - - - 0;
#X floatatom 903 181 5 0 0 0 - - - 0;
#X floatatom 954 178 5 0 0 0 - - - 0;
#X floatatom 1007 177 5 0 0 0 - - - 0;
#X text 889 162 density;
#X text 949 159 cutoff;
#X text 1000 153 resonance;
#X obj 1076 96 vradio 19 1 0 4 empty empty empty 0 -10 0 12 #fcfcfc #000000 #000000 0;
#X obj 1060 181 + 1;
#X text 1040 64 filter type;
#X obj 721 123 poly 6 1;
#X obj 721 264 clone Modal 6;
#X floatatom 1140 174 5 0 0 0 - - - 0;
#X floatatom 1207 173 5 0 0 0 - - - 0;
#X text 1139 148 attack;
#X text 1200 154 release;
#X floatatom 1302 182 5 0 0 0 - - - 0;
#X text 1282 161 inharmonicity;
#X obj 883 240 pack 0 0 0 0 0 0 0 0 0 0, f 46;
#X obj 206 435 clone Markov 4;
#X floatatom 357 560 5 0 0 0 - - - 0;
#X floatatom 291 575 5 0 0 0 - - - 0;
#X obj 202 482 unpack f f f;
#X floatatom 197 579 5 0 0 0 - - - 0;
#X floatatom 211 270 5 0 0 0 - - - 0;
#X obj 210 379 mod 4;
#X obj 210 306 t b f;
#X obj 210 338 f;
#X obj 247 341 + 1;
#X obj 94 38 netreceive -u -b 7099;
#X floatatom 207 182 5 0 0 0 - - - 0;
#X obj 91 80 oscparse;
#X obj 208 234 cyclone/uzi 1;
#X obj 92 122 unpack symbol int;
#X connect 1 0 13 0;
#X connect 1 1 13 1;
#X connect 2 0 21 0;
#X connect 4 0 21 3;
#X connect 5 0 21 4;
#X connect 6 0 21 5;
#X connect 10 0 11 0;
#X connect 11 0 21 6;
#X connect 13 0 2 0;
#X connect 13 1 21 1;
#X connect 13 2 21 2;
#X connect 14 0 0 0;
#X connect 15 0 21 7;
#X connect 16 0 21 8;
#X connect 19 0 21 9;
#X connect 21 0 3 0;
#X connect 21 0 14 0;
#X connect 22 0 25 0;
#X connect 25 0 26 0;
#X connect 25 1 24 0;
#X connect 25 1 13 0;
#X connect 25 2 23 0;
#X connect 25 2 13 1;
#X connect 27 0 29 0;
#X connect 28 0 31 0;
#X connect 28 0 22 0;
#X connect 29 0 30 0;
#X connect 30 0 28 0;
#X connect 31 0 30 1;
#X connect 32 0 34 0;
#X connect 33 0 35 0;
#X connect 34 0 36 0;
#X connect 35 0 27 0;
#X connect 36 1 33 0;
