#N canvas 0 0 1512 1003 12;
#X obj 605 586 - 1;
#X listbox 949 872 41 0 0 0 - - - 0;
#X floatatom 907 772 5 0 0 0 - - - 0;
#X floatatom 958 769 5 0 0 0 - - - 0;
#X floatatom 1011 768 5 0 0 0 - - - 0;
#X text 893 753 density;
#X text 953 750 cutoff;
#X text 1004 744 resonance;
#X obj 1080 687 vradio 19 1 0 4 empty empty empty 0 -10 0 12 #fcfcfc #000000 #000000 0;
#X obj 1064 772 + 1;
#X text 1044 655 filter type;
#X obj 607 554 poly 6 1;
#X obj 725 855 clone Modal 6;
#X floatatom 1144 765 5 0 0 0 - - - 0;
#X floatatom 1211 764 5 0 0 0 - - - 0;
#X text 1143 739 attack;
#X text 1204 745 release;
#X floatatom 1306 773 5 0 0 0 - - - 0;
#X text 1286 752 inharmonicity;
#X obj 887 831 pack 0 0 0 0 0 0 0 0 0 0, f 46;
#X obj 66 791 netreceive -u -b 7099;
#X obj 63 833 oscparse;
#X obj 541 41 tgl 15 0 empty empty empty 17 7 0 10 #fcfcfc #000000 #000000 0 1;
#N canvas 1161 247 679 469 seconda_voce 0;
#X obj 37 30 inlet;
#X obj 37 130 outlet;
#X obj 37 55 t f b;
#X obj 37 103 +;
#N canvas 94 84 1053 556 markov_chain 0;
#X obj 99 226 bng 15 250 50 0 empty empty empty 17 7 0 10 #fcfcfc #000000 #000000;
#X obj 172 226 bng 15 250 50 0 empty empty empty 17 7 0 10 #fcfcfc #000000 #000000;
#X obj 233 227 bng 15 250 50 0 empty empty empty 17 7 0 10 #fcfcfc #000000 #000000;
#X obj 99 147 bng 15 250 50 0 empty empty empty 17 7 0 10 #fcfcfc #000000 #000000;
#X obj 560 224 bng 15 250 50 0 empty empty empty 17 7 0 10 #fcfcfc #000000 #000000;
#X obj 560 150 bng 15 250 50 0 empty empty empty 17 7 0 10 #fcfcfc #000000 #000000;
#X obj 560 195 moses 50;
#X obj 621 225 bng 15 250 50 0 empty empty empty 17 7 0 10 #fcfcfc #000000 #000000;
#X floatatom 470 61 5 0 0 0 - - - 0;
#X obj 99 167 random 100;
#X obj 560 170 random 100;
#X obj 99 194 moses 20;
#X obj 172 194 moses 60;
#X obj 470 33 r \$0-state;
#X obj 99 284 s \$0-state;
#X obj 560 275 s \$0-state;
#X obj 415 357 r \$0-state;
#X obj 433 8 inlet;
#X obj 415 385 outlet;
#X obj 99 246 f 2;
#X obj 172 246 f 4;
#X obj 233 247 f 5;
#X obj 560 244 f 2;
#X obj 621 245 f 5;
#X obj 366 226 bng 15 250 50 0 empty empty empty 17 7 0 10 #fcfcfc #000000 #000000;
#X obj 439 226 bng 15 250 50 0 empty empty empty 17 7 0 10 #fcfcfc #000000 #000000;
#X obj 500 227 bng 15 250 50 0 empty empty empty 17 7 0 10 #fcfcfc #000000 #000000;
#X obj 300 149 bng 15 250 50 0 empty empty empty 17 7 0 10 #fcfcfc #000000 #000000;
#X obj 300 169 random 100;
#X obj 439 194 moses 60;
#X obj 300 284 s \$0-state;
#X obj 366 246 f 2;
#X obj 439 246 f 4;
#X obj 500 247 f 5;
#X obj 300 194 moses 5;
#X obj 300 227 bng 15 250 50 0 empty empty empty 17 7 0 10 #fcfcfc #000000 #000000;
#X obj 776 229 bng 15 250 50 0 empty empty empty 17 7 0 10 #fcfcfc #000000 #000000;
#X obj 849 229 bng 15 250 50 0 empty empty empty 17 7 0 10 #fcfcfc #000000 #000000;
#X obj 910 230 bng 15 250 50 0 empty empty empty 17 7 0 10 #fcfcfc #000000 #000000;
#X obj 711 152 bng 15 250 50 0 empty empty empty 17 7 0 10 #fcfcfc #000000 #000000;
#X obj 711 172 random 100;
#X obj 849 197 moses 60;
#X obj 711 281 s \$0-state;
#X obj 776 249 f 2;
#X obj 849 249 f 4;
#X obj 910 250 f 5;
#X obj 711 197 moses 5;
#X obj 711 230 bng 15 250 50 0 empty empty empty 17 7 0 10 #fcfcfc #000000 #000000;
#X obj 433 90 sel 0 2 4 5;
#X obj 300 247 f 0;
#X obj 711 250 f 0;
#X obj 366 194 moses 45;
#X obj 776 197 moses 45;
#X obj 433 60 f 2;
#X connect 0 0 19 0;
#X connect 1 0 20 0;
#X connect 2 0 21 0;
#X connect 3 0 9 0;
#X connect 4 0 22 0;
#X connect 5 0 10 0;
#X connect 6 0 4 0;
#X connect 6 1 7 0;
#X connect 7 0 23 0;
#X connect 9 0 11 0;
#X connect 10 0 6 0;
#X connect 11 0 0 0;
#X connect 11 1 12 0;
#X connect 12 0 1 0;
#X connect 12 1 2 0;
#X connect 13 0 8 0;
#X connect 13 0 53 1;
#X connect 16 0 18 0;
#X connect 17 0 53 0;
#X connect 19 0 14 0;
#X connect 20 0 14 0;
#X connect 21 0 14 0;
#X connect 22 0 15 0;
#X connect 23 0 15 0;
#X connect 24 0 31 0;
#X connect 25 0 32 0;
#X connect 26 0 33 0;
#X connect 27 0 28 0;
#X connect 28 0 34 0;
#X connect 29 0 25 0;
#X connect 29 1 26 0;
#X connect 31 0 30 0;
#X connect 32 0 30 0;
#X connect 33 0 30 0;
#X connect 34 0 35 0;
#X connect 34 1 51 0;
#X connect 35 0 49 0;
#X connect 36 0 43 0;
#X connect 37 0 44 0;
#X connect 38 0 45 0;
#X connect 39 0 40 0;
#X connect 40 0 46 0;
#X connect 41 0 37 0;
#X connect 41 1 38 0;
#X connect 43 0 42 0;
#X connect 44 0 42 0;
#X connect 45 0 42 0;
#X connect 46 0 47 0;
#X connect 46 1 52 0;
#X connect 47 0 50 0;
#X connect 48 0 3 0;
#X connect 48 1 27 0;
#X connect 48 2 5 0;
#X connect 48 3 39 0;
#X connect 49 0 30 0;
#X connect 50 0 42 0;
#X connect 51 0 24 0;
#X connect 51 1 29 0;
#X connect 52 0 36 0;
#X connect 52 1 41 0;
#X connect 53 0 48 0;
#X restore 74 83 pd markov_chain;
#X connect 0 0 2 0;
#X connect 2 0 3 0;
#X connect 2 1 4 0;
#X connect 3 0 1 0;
#X connect 4 0 3 1;
#X restore 695 200 pd seconda_voce;
#X obj 691 59 random 100;
#X obj 691 130 f 1;
#X obj 755 130 f 2;
#X obj 691 106 bng 15 100 50 0 empty empty empty 17 7 0 10 #fcfcfc #000000 #000000;
#X obj 755 106 bng 15 100 50 0 empty empty empty 17 7 0 10 #fcfcfc #000000 #000000;
#X obj 800 106 bng 15 100 50 0 empty empty empty 17 7 0 10 #fcfcfc #000000 #000000;
#X obj 691 84 moses 70;
#X obj 800 130 f 4;
#X obj 691 163 * 250;
#X obj 755 84 moses 95;
#X obj 541 66 metro 250;
#X obj 541 256 + 48;
#X obj 695 258 + 48;
#X obj 326 71 loadbang;
#X msg 326 98 0 2 4 5 7 9 11 12 14 16 17 19 21 23 24, f 21;
#X obj 326 41 array define \$0-scala 15;
#X obj 326 138 array set \$0-scala;
#X obj 541 225 tabread \$0-scala;
#X obj 695 227 tabread \$0-scala;
#X obj 541 163 cyclone/drunk 9 4;
#X obj 540 124 bng 19 250 50 0 empty empty empty 0 -10 0 12 #fcfcfc #000000 #000000;
#X obj 830 227 tabread \$0-scala;
#N canvas 1161 247 679 469 terza_voce 0;
#X obj 37 30 inlet;
#X obj 37 130 outlet;
#X obj 37 55 t f b;
#X obj 37 103 +;
#N canvas 94 84 1053 556 markov_chain 0;
#X obj 99 226 bng 15 250 50 0 empty empty empty 17 7 0 10 #fcfcfc #000000 #000000;
#X obj 172 226 bng 15 250 50 0 empty empty empty 17 7 0 10 #fcfcfc #000000 #000000;
#X obj 233 227 bng 15 250 50 0 empty empty empty 17 7 0 10 #fcfcfc #000000 #000000;
#X obj 99 147 bng 15 250 50 0 empty empty empty 17 7 0 10 #fcfcfc #000000 #000000;
#X obj 560 224 bng 15 250 50 0 empty empty empty 17 7 0 10 #fcfcfc #000000 #000000;
#X obj 560 150 bng 15 250 50 0 empty empty empty 17 7 0 10 #fcfcfc #000000 #000000;
#X obj 560 195 moses 50;
#X obj 621 225 bng 15 250 50 0 empty empty empty 17 7 0 10 #fcfcfc #000000 #000000;
#X floatatom 470 61 5 0 0 0 - - - 0;
#X obj 99 167 random 100;
#X obj 560 170 random 100;
#X obj 99 194 moses 20;
#X obj 172 194 moses 60;
#X obj 470 33 r \$0-state;
#X obj 99 284 s \$0-state;
#X obj 560 275 s \$0-state;
#X obj 415 357 r \$0-state;
#X obj 433 8 inlet;
#X obj 415 385 outlet;
#X obj 99 246 f 2;
#X obj 172 246 f 4;
#X obj 233 247 f 5;
#X obj 560 244 f 2;
#X obj 621 245 f 5;
#X obj 366 226 bng 15 250 50 0 empty empty empty 17 7 0 10 #fcfcfc #000000 #000000;
#X obj 439 226 bng 15 250 50 0 empty empty empty 17 7 0 10 #fcfcfc #000000 #000000;
#X obj 500 227 bng 15 250 50 0 empty empty empty 17 7 0 10 #fcfcfc #000000 #000000;
#X obj 300 149 bng 15 250 50 0 empty empty empty 17 7 0 10 #fcfcfc #000000 #000000;
#X obj 300 169 random 100;
#X obj 439 194 moses 60;
#X obj 300 284 s \$0-state;
#X obj 366 246 f 2;
#X obj 439 246 f 4;
#X obj 500 247 f 5;
#X obj 300 194 moses 5;
#X obj 300 227 bng 15 250 50 0 empty empty empty 17 7 0 10 #fcfcfc #000000 #000000;
#X obj 776 229 bng 15 250 50 0 empty empty empty 17 7 0 10 #fcfcfc #000000 #000000;
#X obj 849 229 bng 15 250 50 0 empty empty empty 17 7 0 10 #fcfcfc #000000 #000000;
#X obj 910 230 bng 15 250 50 0 empty empty empty 17 7 0 10 #fcfcfc #000000 #000000;
#X obj 711 152 bng 15 250 50 0 empty empty empty 17 7 0 10 #fcfcfc #000000 #000000;
#X obj 711 172 random 100;
#X obj 849 197 moses 60;
#X obj 711 281 s \$0-state;
#X obj 776 249 f 2;
#X obj 849 249 f 4;
#X obj 910 250 f 5;
#X obj 711 197 moses 5;
#X obj 711 230 bng 15 250 50 0 empty empty empty 17 7 0 10 #fcfcfc #000000 #000000;
#X obj 433 90 sel 0 2 4 5;
#X obj 300 247 f 0;
#X obj 711 250 f 0;
#X obj 366 194 moses 45;
#X obj 776 197 moses 45;
#X obj 433 60 f 2;
#X connect 0 0 19 0;
#X connect 1 0 20 0;
#X connect 2 0 21 0;
#X connect 3 0 9 0;
#X connect 4 0 22 0;
#X connect 5 0 10 0;
#X connect 6 0 4 0;
#X connect 6 1 7 0;
#X connect 7 0 23 0;
#X connect 9 0 11 0;
#X connect 10 0 6 0;
#X connect 11 0 0 0;
#X connect 11 1 12 0;
#X connect 12 0 1 0;
#X connect 12 1 2 0;
#X connect 13 0 8 0;
#X connect 13 0 53 1;
#X connect 16 0 18 0;
#X connect 17 0 53 0;
#X connect 19 0 14 0;
#X connect 20 0 14 0;
#X connect 21 0 14 0;
#X connect 22 0 15 0;
#X connect 23 0 15 0;
#X connect 24 0 31 0;
#X connect 25 0 32 0;
#X connect 26 0 33 0;
#X connect 27 0 28 0;
#X connect 28 0 34 0;
#X connect 29 0 25 0;
#X connect 29 1 26 0;
#X connect 31 0 30 0;
#X connect 32 0 30 0;
#X connect 33 0 30 0;
#X connect 34 0 35 0;
#X connect 34 1 51 0;
#X connect 35 0 49 0;
#X connect 36 0 43 0;
#X connect 37 0 44 0;
#X connect 38 0 45 0;
#X connect 39 0 40 0;
#X connect 40 0 46 0;
#X connect 41 0 37 0;
#X connect 41 1 38 0;
#X connect 43 0 42 0;
#X connect 44 0 42 0;
#X connect 45 0 42 0;
#X connect 46 0 47 0;
#X connect 46 1 52 0;
#X connect 47 0 50 0;
#X connect 48 0 3 0;
#X connect 48 1 27 0;
#X connect 48 2 5 0;
#X connect 48 3 39 0;
#X connect 49 0 30 0;
#X connect 50 0 42 0;
#X connect 51 0 24 0;
#X connect 51 1 29 0;
#X connect 52 0 36 0;
#X connect 52 1 41 0;
#X connect 53 0 48 0;
#X restore 74 83 pd markov_chain;
#X connect 0 0 2 0;
#X connect 2 0 3 0;
#X connect 2 1 4 0;
#X connect 3 0 1 0;
#X connect 4 0 3 1;
#X restore 830 200 pd terza_voce;
#X obj 830 258 + 24;
#X obj 957 227 tabread \$0-scala;
#X obj 957 258 + 72;
#X obj 726 918 *~ 0.2;
#X obj 714 1023 dac~;
#X obj 640 922 tgl 15 1 empty empty empty 17 7 0 10 #fcfcfc #000000 #000000 0 1;
#X obj 640 942 switch~;
#X obj 896 908 vsl 19 162 0.0025 0.25 1 0 empty empty empty 0 -9 2 12 #9c00ff #000000 #000000 0 1;
#X floatatom 755 1057 5 0 0 0 - - - 0;
#N canvas 4 4 1920 1016 fader 0;
#X obj 223 168 cyclone/curve~;
#X obj 261 210 snapshot~;
#X floatatom 363 309 5 0 0 0 - - - 0;
#X obj 455 250 tgl 19 0 empty empty empty 0 -10 0 12 #fcfcfc #000000 #000000 0 1;
#X obj 102 22 inlet;
#X obj 279 27 inlet;
#X obj 361 410 outlet;
#X obj 444 296 metro 50;
#X obj 689 255 loadbang;
#X obj 464 54 inlet;
#X msg 123 82 127 2000 0;
#X msg 277 93 0 2000 0;
#X connect 0 0 1 0;
#X connect 1 0 2 0;
#X connect 2 0 6 0;
#X connect 3 0 7 0;
#X connect 4 0 10 0;
#X connect 5 0 11 0;
#X connect 7 0 1 0;
#X connect 8 0 3 0;
#X connect 9 0 2 0;
#X connect 10 0 0 0;
#X connect 11 0 0 0;
#X restore 454 326 pd fader;
#X obj 443 227 bng 19 250 50 0 empty empty empty 0 -10 0 12 #fcfcfc #000000 #000000;
#X obj 499 225 bng 19 250 50 0 empty empty empty 0 -10 0 12 #fcfcfc #000000 #000000;
#N canvas 4 4 1920 1016 fader 0;
#X obj 223 168 cyclone/curve~;
#X obj 261 210 snapshot~;
#X floatatom 363 309 5 0 0 0 - - - 0;
#X obj 455 250 tgl 19 0 empty empty empty 0 -10 0 12 #fcfcfc #000000 #000000 0 1;
#X obj 102 22 inlet;
#X obj 279 27 inlet;
#X obj 361 410 outlet;
#X obj 444 296 metro 50;
#X obj 689 255 loadbang;
#X obj 464 54 inlet;
#X msg 123 82 127 2000 0;
#X msg 277 93 0 2000 0;
#X connect 0 0 1 0;
#X connect 1 0 2 0;
#X connect 2 0 6 0;
#X connect 3 0 7 0;
#X connect 4 0 10 0;
#X connect 5 0 11 0;
#X connect 7 0 1 0;
#X connect 8 0 3 0;
#X connect 9 0 2 0;
#X connect 10 0 0 0;
#X connect 11 0 0 0;
#X restore 685 408 pd fader;
#X obj 691 370 bng 19 250 50 0 empty empty empty 0 -10 0 12 #fcfcfc #000000 #000000;
#X obj 747 368 bng 19 250 50 0 empty empty empty 0 -10 0 12 #fcfcfc #000000 #000000;
#N canvas 4 4 1920 1016 fader 0;
#X obj 223 168 cyclone/curve~;
#X obj 261 210 snapshot~;
#X floatatom 363 309 5 0 0 0 - - - 0;
#X obj 455 250 tgl 19 0 empty empty empty 0 -10 0 12 #fcfcfc #000000 #000000 0 1;
#X obj 102 22 inlet;
#X obj 279 27 inlet;
#X obj 361 410 outlet;
#X obj 444 296 metro 50;
#X obj 689 255 loadbang;
#X obj 464 54 inlet;
#X msg 123 82 127 2000 0;
#X msg 277 93 0 2000 0;
#X connect 0 0 1 0;
#X connect 1 0 2 0;
#X connect 2 0 6 0;
#X connect 3 0 7 0;
#X connect 4 0 10 0;
#X connect 5 0 11 0;
#X connect 7 0 1 0;
#X connect 8 0 3 0;
#X connect 9 0 2 0;
#X connect 10 0 0 0;
#X connect 11 0 0 0;
#X restore 832 409 pd fader;
#X obj 828 362 bng 19 250 50 0 empty empty empty 0 -10 0 12 #fcfcfc #000000 #000000;
#X obj 884 360 bng 19 250 50 0 empty empty empty 0 -10 0 12 #fcfcfc #000000 #000000;
#N canvas 4 4 1920 1016 fader 0;
#X obj 223 168 cyclone/curve~;
#X obj 261 210 snapshot~;
#X floatatom 363 309 5 0 0 0 - - - 0;
#X obj 455 250 tgl 19 0 empty empty empty 0 -10 0 12 #fcfcfc #000000 #000000 0 1;
#X obj 102 22 inlet;
#X obj 279 27 inlet;
#X obj 361 410 outlet;
#X obj 444 296 metro 50;
#X obj 689 255 loadbang;
#X obj 464 54 inlet;
#X msg 123 82 127 2000 0;
#X msg 277 93 0 2000 0;
#X connect 0 0 1 0;
#X connect 1 0 2 0;
#X connect 2 0 6 0;
#X connect 3 0 7 0;
#X connect 4 0 10 0;
#X connect 5 0 11 0;
#X connect 7 0 1 0;
#X connect 8 0 3 0;
#X connect 9 0 2 0;
#X connect 10 0 0 0;
#X connect 11 0 0 0;
#X restore 1037 420 pd fader;
#X obj 1033 373 bng 19 250 50 0 empty empty empty 0 -10 0 12 #fcfcfc #000000 #000000;
#X obj 1089 371 bng 19 250 50 0 empty empty empty 0 -10 0 12 #fcfcfc #000000 #000000;
#X obj 532 288 t b f;
#X obj 688 291 t b f;
#X obj 818 294 t b f;
#X obj 1006 295 t b f;
#N canvas 1161 247 679 469 quarta_voce 0;
#X obj 37 30 inlet;
#X obj 37 130 outlet;
#X obj 37 55 t f b;
#X obj 37 103 +;
#N canvas 94 84 1053 556 markov_chain 0;
#X obj 99 226 bng 15 250 50 0 empty empty empty 17 7 0 10 #fcfcfc #000000 #000000;
#X obj 172 226 bng 15 250 50 0 empty empty empty 17 7 0 10 #fcfcfc #000000 #000000;
#X obj 233 227 bng 15 250 50 0 empty empty empty 17 7 0 10 #fcfcfc #000000 #000000;
#X obj 99 147 bng 15 250 50 0 empty empty empty 17 7 0 10 #fcfcfc #000000 #000000;
#X obj 560 224 bng 15 250 50 0 empty empty empty 17 7 0 10 #fcfcfc #000000 #000000;
#X obj 560 150 bng 15 250 50 0 empty empty empty 17 7 0 10 #fcfcfc #000000 #000000;
#X obj 560 195 moses 50;
#X obj 621 225 bng 15 250 50 0 empty empty empty 17 7 0 10 #fcfcfc #000000 #000000;
#X floatatom 470 61 5 0 0 0 - - - 0;
#X obj 99 167 random 100;
#X obj 560 170 random 100;
#X obj 99 194 moses 20;
#X obj 172 194 moses 60;
#X obj 470 33 r \$0-state;
#X obj 99 284 s \$0-state;
#X obj 560 275 s \$0-state;
#X obj 415 357 r \$0-state;
#X obj 433 8 inlet;
#X obj 415 385 outlet;
#X obj 99 246 f 2;
#X obj 172 246 f 4;
#X obj 233 247 f 5;
#X obj 560 244 f 2;
#X obj 621 245 f 5;
#X obj 366 226 bng 15 250 50 0 empty empty empty 17 7 0 10 #fcfcfc #000000 #000000;
#X obj 439 226 bng 15 250 50 0 empty empty empty 17 7 0 10 #fcfcfc #000000 #000000;
#X obj 500 227 bng 15 250 50 0 empty empty empty 17 7 0 10 #fcfcfc #000000 #000000;
#X obj 300 149 bng 15 250 50 0 empty empty empty 17 7 0 10 #fcfcfc #000000 #000000;
#X obj 300 169 random 100;
#X obj 439 194 moses 60;
#X obj 300 284 s \$0-state;
#X obj 366 246 f 2;
#X obj 439 246 f 4;
#X obj 500 247 f 5;
#X obj 300 194 moses 5;
#X obj 300 227 bng 15 250 50 0 empty empty empty 17 7 0 10 #fcfcfc #000000 #000000;
#X obj 776 229 bng 15 250 50 0 empty empty empty 17 7 0 10 #fcfcfc #000000 #000000;
#X obj 849 229 bng 15 250 50 0 empty empty empty 17 7 0 10 #fcfcfc #000000 #000000;
#X obj 910 230 bng 15 250 50 0 empty empty empty 17 7 0 10 #fcfcfc #000000 #000000;
#X obj 711 152 bng 15 250 50 0 empty empty empty 17 7 0 10 #fcfcfc #000000 #000000;
#X obj 711 172 random 100;
#X obj 849 197 moses 60;
#X obj 711 281 s \$0-state;
#X obj 776 249 f 2;
#X obj 849 249 f 4;
#X obj 910 250 f 5;
#X obj 711 197 moses 5;
#X obj 711 230 bng 15 250 50 0 empty empty empty 17 7 0 10 #fcfcfc #000000 #000000;
#X obj 433 90 sel 0 2 4 5;
#X obj 300 247 f 0;
#X obj 711 250 f 0;
#X obj 366 194 moses 45;
#X obj 776 197 moses 45;
#X obj 433 60 f 2;
#X connect 0 0 19 0;
#X connect 1 0 20 0;
#X connect 2 0 21 0;
#X connect 3 0 9 0;
#X connect 4 0 22 0;
#X connect 5 0 10 0;
#X connect 6 0 4 0;
#X connect 6 1 7 0;
#X connect 7 0 23 0;
#X connect 9 0 11 0;
#X connect 10 0 6 0;
#X connect 11 0 0 0;
#X connect 11 1 12 0;
#X connect 12 0 1 0;
#X connect 12 1 2 0;
#X connect 13 0 8 0;
#X connect 13 0 53 1;
#X connect 16 0 18 0;
#X connect 17 0 53 0;
#X connect 19 0 14 0;
#X connect 20 0 14 0;
#X connect 21 0 14 0;
#X connect 22 0 15 0;
#X connect 23 0 15 0;
#X connect 24 0 31 0;
#X connect 25 0 32 0;
#X connect 26 0 33 0;
#X connect 27 0 28 0;
#X connect 28 0 34 0;
#X connect 29 0 25 0;
#X connect 29 1 26 0;
#X connect 31 0 30 0;
#X connect 32 0 30 0;
#X connect 33 0 30 0;
#X connect 34 0 35 0;
#X connect 34 1 51 0;
#X connect 35 0 49 0;
#X connect 36 0 43 0;
#X connect 37 0 44 0;
#X connect 38 0 45 0;
#X connect 39 0 40 0;
#X connect 40 0 46 0;
#X connect 41 0 37 0;
#X connect 41 1 38 0;
#X connect 43 0 42 0;
#X connect 44 0 42 0;
#X connect 45 0 42 0;
#X connect 46 0 47 0;
#X connect 46 1 52 0;
#X connect 47 0 50 0;
#X connect 48 0 3 0;
#X connect 48 1 27 0;
#X connect 48 2 5 0;
#X connect 48 3 39 0;
#X connect 49 0 30 0;
#X connect 50 0 42 0;
#X connect 51 0 24 0;
#X connect 51 1 29 0;
#X connect 52 0 36 0;
#X connect 52 1 41 0;
#X connect 53 0 48 0;
#X restore 74 83 pd markov_chain;
#X connect 0 0 2 0;
#X connect 2 0 3 0;
#X connect 2 1 4 0;
#X connect 3 0 1 0;
#X connect 4 0 3 1;
#X restore 957 200 pd quarta_voce;
#X obj 64 875 unpack symbol int int int int, f 48;
#X obj 75 970 moses 1;
#X obj 217 968 moses 1;
#X obj 365 974 moses 1;
#X obj 520 973 moses 1;
#X obj 14 1015 send on1;
#X obj 90 1013 send off1;
#X obj 500 1011 send on4;
#X obj 578 1014 send off4;
#X obj 418 1008 send off3;
#X obj 343 1010 send on3;
#X obj 253 1009 send off2;
#X obj 177 1011 send on2;
#X obj 357 181 receive on1;
#X obj 450 182 receive off1;
#X obj 589 327 receive on2;
#X obj 682 328 receive off2;
#X obj 809 321 receive on3;
#X obj 902 322 receive off3;
#X obj 1004 328 receive on4;
#X obj 1097 329 receive off4;
#X obj 697 968 rev2~ 100 90 3000 20;
#X connect 0 0 19 0;
#X connect 2 0 19 3;
#X connect 3 0 19 4;
#X connect 4 0 19 5;
#X connect 8 0 9 0;
#X connect 9 0 19 6;
#X connect 11 0 0 0;
#X connect 11 1 19 1;
#X connect 11 2 19 2;
#X connect 12 0 50 0;
#X connect 13 0 19 7;
#X connect 14 0 19 8;
#X connect 17 0 19 9;
#X connect 19 0 1 0;
#X connect 19 0 12 0;
#X connect 20 0 21 0;
#X connect 21 0 73 0;
#X connect 22 0 34 0;
#X connect 23 0 42 0;
#X connect 24 0 30 0;
#X connect 25 0 32 0;
#X connect 26 0 32 0;
#X connect 27 0 25 0;
#X connect 28 0 26 0;
#X connect 29 0 31 0;
#X connect 30 0 27 0;
#X connect 30 1 33 0;
#X connect 31 0 32 0;
#X connect 32 0 34 1;
#X connect 33 0 28 0;
#X connect 33 1 29 0;
#X connect 34 0 24 0;
#X connect 34 0 44 0;
#X connect 35 0 68 0;
#X connect 36 0 69 0;
#X connect 37 0 38 0;
#X connect 38 0 40 0;
#X connect 41 0 35 0;
#X connect 42 0 36 0;
#X connect 43 0 41 0;
#X connect 43 0 23 0;
#X connect 43 0 46 0;
#X connect 43 0 72 0;
#X connect 44 0 43 0;
#X connect 45 0 47 0;
#X connect 46 0 45 0;
#X connect 47 0 70 0;
#X connect 48 0 49 0;
#X connect 49 0 71 0;
#X connect 50 0 94 0;
#X connect 52 0 53 0;
#X connect 54 0 50 1;
#X connect 54 0 55 0;
#X connect 56 0 11 1;
#X connect 57 0 56 0;
#X connect 58 0 56 1;
#X connect 59 0 11 1;
#X connect 60 0 59 0;
#X connect 61 0 59 1;
#X connect 62 0 11 1;
#X connect 63 0 62 0;
#X connect 64 0 62 1;
#X connect 65 0 11 1;
#X connect 66 0 65 0;
#X connect 67 0 65 1;
#X connect 68 0 56 2;
#X connect 68 1 11 0;
#X connect 69 0 59 2;
#X connect 69 1 11 0;
#X connect 70 0 62 2;
#X connect 70 1 11 0;
#X connect 71 0 65 2;
#X connect 71 1 11 0;
#X connect 72 0 48 0;
#X connect 73 1 74 0;
#X connect 73 2 75 0;
#X connect 73 3 76 0;
#X connect 73 4 77 0;
#X connect 74 0 78 0;
#X connect 74 1 79 0;
#X connect 75 0 85 0;
#X connect 75 1 84 0;
#X connect 76 0 83 0;
#X connect 76 1 82 0;
#X connect 77 0 80 0;
#X connect 77 1 81 0;
#X connect 86 0 57 0;
#X connect 87 0 58 0;
#X connect 88 0 60 0;
#X connect 89 0 61 0;
#X connect 90 0 63 0;
#X connect 91 0 64 0;
#X connect 92 0 66 0;
#X connect 93 0 67 0;
#X connect 94 0 51 0;
#X connect 94 1 51 1;
